<?xml version="1.0" standalone="no"?>
<!DOCTYPE svg PUBLIC "-//W3C//DTD SVG 20010904//EN"
 "http://www.w3.org/TR/2001/REC-SVG-20010904/DTD/svg10.dtd">
<svg version="1.0" xmlns="http://www.w3.org/2000/svg"
 width="1100.000000pt" height="1100.000000pt" viewBox="0 0 1100.000000 1100.000000"
 preserveAspectRatio="xMidYMid meet">
<metadata>
Created by potrace 1.11, written by Peter Selinger 2001-2013
</metadata>
<g transform="translate(0.000000,1100.000000) scale(0.100000,-0.100000)"
fill="#000000" stroke="none">
<path d="M5295 10344 c-136 -23 -219 -68 -325 -175 -74 -74 -100 -126 -179
-357 -118 -343 -153 -443 -203 -587 -27 -77 -55 -160 -63 -185 -7 -25 -52
-157 -100 -295 -47 -137 -115 -333 -150 -435 -157 -458 -265 -775 -265 -777 0
-2 -636 -3 -1412 -3 -1553 0 -1488 2 -1617 -61 -318 -156 -424 -552 -227 -849
59 -89 167 -177 263 -214 108 -43 101 -43 1371 -42 879 1 1212 -2 1212 -10 0
-6 -38 -123 -85 -260 -48 -137 -99 -287 -115 -334 -15 -47 -74 -218 -130 -380
-56 -162 -114 -333 -130 -380 -16 -47 -65 -190 -109 -319 -45 -129 -81 -235
-81 -236 0 0 -402 -2 -892 -2 -491 0 -904 -3 -918 -6 -118 -26 -212 -74 -301
-156 -186 -171 -236 -443 -125 -677 33 -69 54 -100 107 -153 82 -84 158 -127
281 -160 62 -17 123 -18 710 -19 354 -1 664 -1 689 -2 l47 0 -15 -43 c-29 -81
-92 -265 -211 -612 -66 -192 -168 -489 -227 -660 -238 -693 -238 -691 -239
-785 0 -134 22 -222 84 -324 41 -67 64 -93 133 -149 198 -161 474 -172 690
-27 96 65 158 135 203 235 13 28 77 208 143 401 65 192 172 502 236 689 64
187 139 405 167 485 27 80 60 177 73 215 67 199 196 569 199 573 10 9 2013 7
2010 -3 -2 -5 -32 -95 -68 -200 -35 -104 -116 -341 -179 -525 -63 -184 -154
-450 -202 -590 -47 -140 -89 -262 -92 -270 -18 -49 -84 -237 -87 -250 -2 -8
-13 -43 -25 -76 -73 -217 -32 -430 115 -593 46 -52 171 -141 196 -141 8 0 19
-5 25 -11 19 -19 117 -40 191 -40 91 0 184 17 236 42 22 10 44 19 49 19 17 0
138 93 173 133 38 45 97 139 106 172 3 11 45 133 93 270 48 138 99 288 115
335 16 47 51 150 79 230 27 80 95 278 151 440 56 162 115 336 131 385 17 50
33 97 36 105 10 27 185 535 190 553 3 9 13 17 22 18 9 0 655 1 1436 2 l1420 2
81 28 c93 31 201 102 263 174 54 62 108 173 126 260 56 261 -73 528 -309 641
-143 69 -97 67 -1433 66 -656 0 -1193 2 -1193 5 0 6 43 131 211 621 45 129 96
280 115 335 19 55 59 172 90 260 30 88 59 174 64 190 4 17 24 73 43 125 19 52
56 159 82 238 26 78 52 142 59 143 6 0 416 2 911 3 831 2 904 4 955 20 129 42
213 102 312 224 22 27 62 106 77 153 46 142 37 293 -24 427 -32 69 -101 163
-150 204 -51 43 -157 97 -230 116 -78 21 -97 22 -764 22 -377 0 -686 2 -689 4
-2 3 13 53 33 113 21 59 64 185 95 278 32 94 106 310 165 480 59 171 111 326
117 345 6 19 13 40 16 45 4 6 7 15 8 20 3 10 191 561 238 695 15 41 32 95 38
120 15 62 18 184 6 250 -31 172 -155 334 -314 411 -136 66 -245 77 -424 43 -8
-2 -51 -21 -95 -43 -119 -59 -233 -177 -275 -286 -12 -30 -189 -542 -260 -750
-20 -60 -72 -211 -114 -335 -43 -124 -104 -301 -136 -395 -32 -93 -109 -316
-170 -495 -62 -179 -121 -352 -131 -385 -11 -33 -25 -72 -31 -87 l-10 -28
-1005 0 -1005 0 5 23 c3 12 51 155 107 317 177 515 191 554 215 625 13 39 72
210 130 380 273 796 268 779 269 890 0 154 -51 289 -154 403 -129 141 -333
210 -525 176z m1553 -3992 c2 -6 -26 -96 -62 -201 -36 -105 -96 -278 -132
-383 -36 -106 -83 -242 -104 -303 -21 -60 -52 -150 -68 -200 -17 -49 -71 -207
-120 -350 -49 -143 -102 -296 -116 -340 -15 -44 -32 -92 -37 -106 l-10 -26
-1004 1 c-553 0 -1005 3 -1005 6 0 4 45 139 101 301 55 162 104 305 109 319 5
14 56 165 115 335 59 171 113 328 120 350 31 94 205 596 209 603 7 12 1999 7
2004 -6z"/>
</g>
</svg>
