<?xml version="1.0" standalone="no"?>
<!DOCTYPE svg PUBLIC "-//W3C//DTD SVG 20010904//EN"
 "http://www.w3.org/TR/2001/REC-SVG-20010904/DTD/svg10.dtd">
<svg version="1.0" xmlns="http://www.w3.org/2000/svg"
 width="512.000000pt" height="512.000000pt" viewBox="0 0 512.000000 512.000000"
 preserveAspectRatio="xMidYMid meet">
<metadata>
Created for 1001 Tea Facts, by David Kartuzinski
</metadata>
<g transform="translate(0.000000,512.000000) scale(0.100000,-0.100000)"
fill="#000000" stroke="none">
<path d="M4350 4110 c-36 -5 -87 -11 -115 -14 -124 -15 -295 -39 -400 -57
-108 -19 -409 -84 -475 -104 -25 -7 -74 -21 -110 -30 -387 -106 -771 -279
-1046 -470 -104 -73 -262 -211 -319 -279 -22 -26 -51 -59 -63 -74 -53 -60
-142 -203 -186 -297 -38 -80 -82 -221 -110 -350 -15 -66 -30 -131 -33 -145 -9
-38 -19 -136 -37 -330 -9 -107 22 -351 58 -450 9 -24 15 -49 12 -56 -6 -16
-196 -134 -304 -188 -146 -73 -229 -97 -357 -102 -118 -5 -150 -17 -160 -57
-19 -75 122 -207 220 -207 87 0 347 129 625 311 l135 88 50 -15 c133 -40 354
-27 600 36 636 163 1009 429 1233 882 76 153 133 315 207 588 126 465 171 600
265 795 78 161 179 309 295 433 53 56 93 101 88 101 -4 -1 -37 -5 -73 -9z"/>
</g>
</svg>
